<svg width="528" height="529" viewBox="0 0 528 529" fill="none" xmlns="http://www.w3.org/2000/svg">
<rect width="528" height="529" fill="white"/>
<path fill-rule="evenodd" clip-rule="evenodd" d="M251.051 395.201C185.924 380.921 99.15 352.581 113.409 255.343C127.669 158.104 188.795 120.612 264.418 120.612C340.038 120.612 425.956 177.773 409.089 296.187C392.223 414.601 316.178 409.482 251.051 395.201ZM465.118 277.987C467.807 250.93 464.95 224.159 457.274 199.062L479.174 187.309C482.865 185.329 484.254 180.727 482.28 177.03L452.382 121.104C450.402 117.407 445.808 116.016 442.117 117.996L420.217 129.749C403.615 109.446 382.954 92.2291 358.988 79.4792L366.172 55.664C367.386 51.6494 365.12 47.4115 361.111 46.1978L300.498 27.8348C296.489 26.6211 292.262 28.8913 291.048 32.9059L283.865 56.7211C256.854 54.0274 237.177 63.9435 212.127 71.6291L200.396 49.6874C198.42 45.9902 193.826 44.5988 190.136 46.579L134.317 76.5362C130.627 78.5164 129.238 83.1185 131.214 86.8151L142.945 108.757C122.68 125.39 98.4563 139.037 85.7305 163.053L61.9597 155.852C57.9533 154.638 53.7228 156.908 52.5114 160.922L34.1838 221.651C32.9724 225.665 35.2383 229.903 39.2447 231.118L63.0155 238.319C60.3269 265.375 63.1842 292.147 70.8552 317.243L48.9551 328.997C45.2649 330.977 43.8761 335.579 45.8525 339.276L75.7531 395.201C77.7295 398.898 82.3229 400.29 86.0125 398.309L107.913 386.556C124.515 406.86 145.175 424.077 169.146 436.826L161.959 460.642C160.747 464.656 163.013 468.894 167.02 470.108L227.634 488.468C231.637 489.684 235.87 487.414 237.084 483.397L244.268 459.585C271.272 462.278 297.995 459.415 323.045 451.729L334.773 473.672C336.752 477.368 341.346 478.757 345.038 476.779L400.857 446.822C404.543 444.843 405.937 440.24 403.957 436.543L392.223 414.601C412.492 397.968 429.673 377.268 442.403 353.252L466.17 360.453C470.179 361.667 474.412 359.397 475.62 355.383L493.946 294.654C495.16 290.64 492.894 286.402 488.885 285.188L465.118 277.987Z" fill="#59DB8A"/>
<path fill-rule="evenodd" clip-rule="evenodd" d="M347.84 141.455L345.729 141.384L345.67 143.263C345.57 146.643 345.616 150.26 345.666 154.203C345.701 156.951 345.738 159.858 345.729 162.954L345.379 169.067C345.388 174.763 345.428 182.69 345.499 192.85L345.728 221.772C344.177 222.287 343.011 223.629 342.777 225.262C341.497 225.457 340.514 226.546 340.514 227.856C340.514 228.783 341.007 229.599 341.749 230.066L340.846 232.253C340.445 233.225 339.783 234.055 338.932 234.655C335.202 237.284 333.006 241.542 333.058 246.046C333.059 246.165 333.062 246.285 333.066 246.404C333.083 246.836 333.452 247.168 333.893 247.157C334.333 247.14 334.676 246.777 334.66 246.346C334.656 246.24 334.653 246.134 334.652 246.028C334.606 242.034 337.257 238.258 340.566 235.926C341.662 235.153 342.513 234.087 343.028 232.841L343.298 230.482H344.431C344.431 230.482 344.825 232.605 344.825 234.265C344.825 235.925 344.431 239.212 344.431 239.212H343.125C341.628 239.212 340.411 240.407 340.411 241.876C340.411 243.344 341.628 244.539 343.125 244.539H343.312C344.808 244.539 345.321 243.772 345.321 241.876C345.321 240.883 345.431 240.173 347.048 240.173C348.664 240.173 348.248 241.876 348.248 241.876C348.248 243.344 349.465 244.539 350.961 244.539H351.148C352.645 244.539 353.862 243.344 353.862 241.876C353.862 240.407 351.338 239.165 349.842 239.165C349.842 239.165 349.444 236.178 349.444 234.655C349.444 233.372 349.842 230.748 349.842 230.748H348.248C348.248 230.748 348.58 233.197 348.58 234.692C348.58 236.186 348.248 239.165 348.248 239.165C348.248 239.165 347.369 239.324 346.95 239.333C346.531 239.342 346.025 239.212 346.025 239.212C346.025 239.212 345.676 236.158 345.676 234.692C345.676 233.226 346.025 230.482 346.025 230.482H348.248H349.842H350.976L351.949 232.84C352.439 234.025 353.903 235.065 355.019 235.858L355.161 235.958C358.395 238.26 359.622 241.971 359.622 245.886C359.622 249.193 358.301 252.292 355.9 254.614C353.501 256.935 350.323 258.892 346.95 258.843C344.275 258.805 341.54 257.328 339.403 255.728C337.333 254.178 334.652 249.94 334.205 248.961C333.759 247.983 333.549 249.527 333.679 249.94C334.538 252.668 336.295 255.132 338.627 256.877C341.038 258.682 343.908 259.659 346.927 259.702C350.731 259.756 354.313 258.345 357.019 255.728C359.726 253.11 361.217 249.615 361.217 245.886C361.217 241.471 359.039 237.286 355.393 234.692C354.504 234.06 353.825 233.216 353.427 232.253L352.524 230.067C353.266 229.599 353.759 228.783 353.759 227.856C353.759 226.546 352.776 225.457 351.496 225.262C351.233 223.421 349.784 221.95 347.934 221.616L347.831 221.616L346.609 194.721C346.536 184.484 347.491 164.023 347.491 164.023C347.508 156.154 347.605 149.256 347.781 143.327L347.84 141.455ZM350.961 242.974C350.344 242.974 349.842 242.481 349.842 241.876V240.173C349.842 240.173 352.268 240.66 352.268 241.876C352.268 242.991 351.845 242.984 351.299 242.976L351.297 242.975C351.249 242.975 351.199 242.974 351.148 242.974H350.961ZM341.395 241.875C341.499 243.405 344.666 244.072 344.431 241.875V240.173C344.431 240.173 341.292 240.346 341.395 241.875ZM344.403 225.23C344.696 224.015 345.81 223.108 347.137 223.108C348.463 223.108 349.578 224.015 349.871 225.23H344.403ZM351.083 226.795H350.743H343.531H343.19C342.594 226.795 342.109 227.271 342.109 227.856C342.109 228.441 342.594 228.917 343.19 228.917H351.084C351.68 228.917 352.165 228.441 352.165 227.856C352.165 227.271 351.68 226.795 351.083 226.795ZM364.744 233.606H366.137C366.53 233.606 366.849 233.291 366.849 232.901C366.849 232.511 366.53 232.196 366.137 232.196H364.744C364.351 232.196 364.033 232.511 364.033 232.901C364.033 233.291 364.351 233.606 364.744 233.606ZM363.637 238.6L364.978 239.165C365.356 239.324 365.539 239.776 365.387 240.173C365.236 240.57 364.807 240.763 364.428 240.604L363.088 240.039C362.71 239.879 362.526 239.428 362.678 239.031C362.793 238.728 363.07 238.544 363.363 238.544C363.454 238.544 363.547 238.562 363.637 238.6ZM362.44 227.097L363.697 226.088C364.051 225.803 364.139 225.239 363.894 224.827C363.743 224.573 363.499 224.437 363.252 224.437C363.099 224.437 362.944 224.489 362.809 224.598L361.553 225.608C361.199 225.893 361.11 226.457 361.355 226.868C361.6 227.279 362.086 227.382 362.44 227.097ZM328.825 233.606H327.432C327.039 233.606 326.721 233.291 326.721 232.901C326.721 232.511 327.039 232.196 327.432 232.196H328.825C329.218 232.196 329.537 232.511 329.537 232.901C329.537 233.291 329.218 233.606 328.825 233.606ZM329.932 238.6L328.592 239.165C328.214 239.324 328.03 239.776 328.182 240.173C328.334 240.57 328.763 240.763 329.141 240.604L330.482 240.039C330.86 239.879 331.043 239.428 330.891 239.031C330.776 238.728 330.499 238.544 330.207 238.544C330.115 238.544 330.023 238.562 329.932 238.6ZM331.129 227.097L329.873 226.088C329.519 225.803 329.43 225.239 329.675 224.828C329.827 224.573 330.07 224.437 330.317 224.437C330.47 224.437 330.625 224.489 330.76 224.598L332.017 225.608C332.371 225.892 332.459 226.457 332.214 226.868C331.969 227.279 331.483 227.382 331.129 227.097Z" fill="#FFB61D"/>
<path d="M243.839 338.406C251.605 340.453 255.589 345.327 258.954 349.865C262.326 354.403 254.913 352.244 250.823 350.606C246.733 348.968 236.884 342.91 236.884 342.91L204.232 333.016V317.885L213.997 317.313C213.997 317.313 236.067 336.357 243.839 338.406Z" fill="white"/>
<path d="M210.007 227.59C216.991 254.071 220.595 279.409 221.166 303.715C221.166 303.715 227.706 304.534 226.889 310.268C226.073 316.001 208.902 331.563 208.902 331.563L202.953 311.807L200.729 239.008L210.007 227.59Z" fill="white"/>
<path fill-rule="evenodd" clip-rule="evenodd" d="M212.389 241.142L208.379 238.477C208.123 238.307 207.785 238.439 207.693 238.746L206.294 243.399C206.178 243.787 206.526 244.15 206.886 244.017L212.295 242.029C212.664 241.893 212.72 241.362 212.389 241.142ZM211.903 241.911L206.976 243.339L208.442 239.107L211.903 241.911Z" fill="#FFB61D"/>
<path fill-rule="evenodd" clip-rule="evenodd" d="M210.629 274.646L206.619 271.981C206.363 271.811 206.025 271.943 205.933 272.25L204.535 276.903C204.418 277.29 204.766 277.654 205.127 277.521L210.535 275.533C210.904 275.397 210.96 274.866 210.629 274.646ZM210.144 275.415L205.216 276.843L206.683 272.611L210.144 275.415Z" fill="#FFB61D"/>
<path fill-rule="evenodd" clip-rule="evenodd" d="M208.521 293.469L208.82 288.657C208.839 288.349 208.556 288.122 208.244 288.195L203.523 289.309C203.13 289.401 202.99 289.885 203.285 290.132L207.708 293.83C208.009 294.082 208.497 293.866 208.521 293.469ZM207.614 293.431L203.915 289.869L208.307 289.026L207.614 293.431Z" fill="#FFB61D"/>
<path fill-rule="evenodd" clip-rule="evenodd" d="M216.121 289.918L211.318 289.619C211.011 289.6 210.784 289.884 210.858 290.195L211.969 294.926C212.061 295.32 212.544 295.46 212.79 295.164L216.482 290.733C216.733 290.431 216.517 289.943 216.121 289.918ZM216.084 290.827L212.529 294.532L211.687 290.132L216.084 290.827Z" fill="#FFB61D"/>
<path fill-rule="evenodd" clip-rule="evenodd" d="M212.414 314.448L208.105 316.595C207.83 316.732 207.775 317.092 207.994 317.325L211.317 320.865C211.594 321.16 212.082 321.039 212.148 320.66L213.133 314.973C213.201 314.585 212.77 314.271 212.414 314.448ZM212.836 315.253L211.607 320.243L208.682 316.855L212.836 315.253Z" fill="#FFB61D"/>
<path fill-rule="evenodd" clip-rule="evenodd" d="M214.525 301.047L210.217 303.194C209.941 303.331 209.887 303.69 210.106 303.923L213.429 307.463C213.705 307.758 214.193 307.638 214.259 307.259L215.245 301.572C215.312 301.184 214.881 300.87 214.525 301.047ZM214.947 301.852L213.718 306.842L210.793 303.453L214.947 301.852Z" fill="#FFB61D"/>
<path d="M186.592 243.513L181.855 257.843C171.025 290.662 165.693 307.32 165.532 308.882C165.433 309.852 166.02 310.577 166.926 310.823C167.47 310.972 168.135 310.964 168.962 310.841C170.248 310.65 171.967 310.166 174.043 309.448C175.648 308.893 177.382 308.226 179.139 307.506L179.878 307.2C180.118 307.1 180.351 307.001 180.577 306.905L181.751 306.399L182.086 306.25L182.281 305.94C182.627 305.388 183.12 304.412 183.606 303.073C184.034 301.897 184.374 300.638 184.598 299.307L184.677 298.805C184.746 298.316 185.416 297.186 186.796 295.255L187.759 293.935C188.548 292.87 190.066 290.833 190.219 290.627L191.112 289.416C191.965 288.251 192.71 287.209 193.438 286.16C197.088 280.894 199.668 276.285 201.189 271.85C202.48 268.088 202.933 264.602 202.422 261.397C201.639 256.505 201.939 251.831 203.082 247.444C204.031 243.799 201.028 240.437 196.699 239.201C192.226 237.923 187.965 239.37 186.592 243.513Z" fill="white"/>
<path d="M194.522 222.323C197.16 225.129 199.374 227.268 201.164 228.742C204.178 231.224 208.498 233.884 214.126 236.722C196.913 240.716 186.402 241.505 182.594 239.091C182.594 239.091 184.18 231.613 186.459 228.409C188.156 226.024 194.522 222.323 194.522 222.323Z" fill="white"/>
<path d="M221.904 186.273C218.327 199.882 208.556 214.089 198.151 211.345C187.746 208.601 181.987 190.001 185.563 176.392C189.139 162.783 200.474 153.976 210.879 156.719C221.284 159.463 225.48 172.665 221.904 186.273Z" fill="white"/>
<path d="M224.283 190.613C220.235 206.187 209.177 222.446 197.402 219.306C185.626 216.165 179.109 194.879 183.156 179.305C187.204 163.731 200.031 153.652 211.806 156.792C223.581 159.932 228.33 175.04 224.283 190.613Z" fill="white"/>
<path fill-rule="evenodd" clip-rule="evenodd" d="M205.49 158.583C213.514 159.04 219.37 161.681 222.653 166.335L223.023 166.873C224.647 169.22 226.012 170.698 226.609 175.141L226.667 175.613C227.008 178.536 227.108 181.62 226.932 182.643C226.838 183.076 226.653 183.226 226.419 183.181C225.889 183.077 224.515 180.632 222.299 175.845L220.439 178.026C219.427 179.198 217.28 180.302 216.008 181.132C214.736 181.962 205.49 158.583 205.49 158.583Z" fill="#E7EAEE"/>
<path fill-rule="evenodd" clip-rule="evenodd" d="M213.592 202.791C218.06 204.658 221.454 207.082 222.354 206.074C223.254 205.065 220.185 201.994 217.8 197.823C215.304 193.675 212.932 188.451 212.489 186.325L211.354 180.952C208.034 185.15 204.925 199.234 213.592 202.791Z" fill="white"/>
<path d="M265.539 459.258L265.297 474.198H256.816L254.275 457.056L265.539 459.258Z" fill="white"/>
<path d="M172.649 379.814C172.649 379.814 227.683 378.596 244.983 376.096C264.188 373.321 274.691 366.762 278.867 367.537C280.824 367.9 292.376 369.951 316.481 372.52C326.675 373.606 353.137 373.773 353.137 373.773L363.408 351.871C363.408 351.871 291.133 337.333 268.282 343.625C261.094 345.605 245.529 348.461 227.023 347.418C211.021 346.516 167.498 338.047 167.498 338.047C167.498 338.047 149.925 344.366 153.106 359.908C156.287 375.45 172.649 379.814 172.649 379.814Z" fill="white"/>
<path fill-rule="evenodd" clip-rule="evenodd" d="M357.52 361.241L360.903 351.426C360.903 351.426 288.749 337.942 265.898 344.235C258.711 346.214 252.215 349.477 233.709 348.434C226.625 348.035 214.512 346.374 197.371 343.451C188.7 341.972 187.307 342.519 194.122 346.984C209.925 357.338 245.078 354.898 276.974 350.232C336.252 341.561 357.52 361.241 357.52 361.241Z" fill="#E7EAEE"/>
<path d="M255.965 462.65C252.375 466.625 247.616 473.17 250.066 479.723L292.58 492.828C292.58 492.828 294.214 487.912 291.764 483.821C289.307 479.723 266.111 463.556 266.111 463.556L255.965 462.65Z" fill="white"/>
<path fill-rule="evenodd" clip-rule="evenodd" d="M275.589 471.527C275.871 471.451 276.161 471.618 276.237 471.9C276.313 472.182 276.147 472.472 275.865 472.549C274.481 472.924 273.569 473.801 273.248 474.911C272.833 476.346 272.787 477.814 273.258 480.163C273.316 480.449 273.13 480.728 272.844 480.786C272.559 480.843 272.28 480.658 272.223 480.371C271.719 477.859 271.77 476.219 272.233 474.617C272.658 473.147 273.853 471.999 275.589 471.527Z" fill="#E7EAEE"/>
<path fill-rule="evenodd" clip-rule="evenodd" d="M252.177 480.428L294.003 492.758C294.003 492.758 299.315 491.64 293.822 490.858C288.179 490.054 255.138 474.896 251.504 477.657C250.987 478.05 251.857 479.572 252.177 480.428Z" fill="#E7EAEE"/>
<path d="M147.961 376.687C147.961 376.687 166.834 382.655 182.032 384.892C197.23 387.13 227.545 388.403 227.545 388.403C227.545 388.403 237.009 393.558 237.62 395.945C237.857 396.874 239.292 409.161 243.257 424.856C245.122 432.239 255.089 465.626 255.089 465.626L268.282 459.775C268.282 459.775 267.752 398.41 259.331 378.057C250.909 357.703 164.344 337.935 164.344 337.935C164.344 337.935 145.972 334.605 140.97 349.658C135.969 364.712 147.961 376.687 147.961 376.687Z" fill="white"/>
<path fill-rule="evenodd" clip-rule="evenodd" d="M257.201 463.51L270.394 457.659C270.041 416.749 267.057 389.509 261.443 375.94C261.443 375.94 267.18 448.175 257.201 463.51Z" fill="#E7EAEE"/>
<path d="M372.243 362.047C375.526 366.28 381.134 372.112 388 370.833L408.264 331.16C408.264 331.16 403.05 328.849 398.603 330.556C394.149 332.269 374.561 352.749 374.561 352.749L372.243 362.047Z" fill="white"/>
<path fill-rule="evenodd" clip-rule="evenodd" d="M284.225 478.571C284.435 478.369 284.769 478.376 284.971 478.587C285.173 478.798 285.166 479.133 284.955 479.335C283.728 480.513 283.501 482.486 284.205 483.677C284.353 483.929 284.27 484.253 284.019 484.402C283.768 484.551 283.444 484.468 283.296 484.216C282.347 482.61 282.637 480.095 284.225 478.571Z" fill="#E7EAEE"/>
<path fill-rule="evenodd" clip-rule="evenodd" d="M279.912 475.083C280.124 474.883 280.458 474.893 280.658 475.106C280.858 475.319 280.847 475.654 280.635 475.854L280.349 476.129C278.129 478.318 277.492 480.232 279.447 482.285C279.649 482.497 279.641 482.832 279.43 483.033C279.219 483.235 278.885 483.227 278.683 483.016C277.238 481.498 276.942 479.859 277.582 478.219C278.023 477.087 278.791 476.137 279.912 475.083Z" fill="#E7EAEE"/>
<path fill-rule="evenodd" clip-rule="evenodd" d="M259.591 474.39C260.802 476.711 267.237 475.759 266.117 469.339C265.588 466.301 256.234 467.961 259.591 474.39Z" fill="#E7EAEE"/>
<path fill-rule="evenodd" clip-rule="evenodd" d="M383.982 371.57C392.486 361.835 397.373 339.939 404.376 332.405C406.848 329.746 410.054 329.149 406.603 335.445C400.289 346.964 388.153 371.57 388.153 371.57C387.511 371.892 386.717 371.57 385.999 371.57H383.982Z" fill="#E7EAEE"/>
<path d="M243.839 338.405C251.604 340.453 255.589 345.326 258.954 349.865C262.326 354.403 254.913 352.244 250.823 350.605C246.732 348.968 238.908 342.751 238.908 342.751L243.839 338.405Z" fill="white"/>
<path d="M173.109 319.977C173.109 319.977 216.821 338.79 222.981 338.815C229.134 338.841 244.235 346.187 245.051 351.92C246.044 358.895 219.707 348.644 219.707 348.644C219.707 348.644 160.846 348.644 151.039 338.815C141.226 328.986 147.765 308.51 147.765 308.51L173.109 319.977Z" fill="white"/>
<path d="M162.479 232.337C162.479 232.337 173.11 238.889 174.743 260.185C176.376 281.48 169.836 306.872 169.836 306.872C169.836 306.872 173.926 310.148 174.743 313.424C175.56 316.7 173.074 321.025 173.074 321.025C173.074 321.025 148.584 333.082 146.948 333.901C145.314 334.72 138.773 332.262 138.773 325.71C138.773 319.158 141.226 313.424 141.226 313.424C142.4 270.198 135.503 228.241 162.479 232.337Z" fill="white"/>
<path fill-rule="evenodd" clip-rule="evenodd" d="M205.781 187.022C208.296 183.649 213.611 182.551 215.029 187.876C215.029 187.876 216.119 191.09 213.922 193.075C207.194 199.158 203.267 190.396 205.781 187.022Z" fill="white"/>
<path fill-rule="evenodd" clip-rule="evenodd" d="M219.823 190.681C222.212 187.477 227.261 186.433 228.608 191.493C228.608 191.493 229.644 194.545 227.557 196.432C221.165 202.21 217.434 193.886 219.823 190.681Z" fill="white"/>
<path d="M200.263 231.704C200.263 231.704 200.263 271.076 200.84 293.078C201.417 315.079 196.384 336.757 186.767 353.71C177.15 370.663 178.459 394.915 171.37 396.717C115.3 410.976 130.396 236.485 151.142 225.335C171.888 214.185 178.741 211.823 178.741 211.823" fill="white"/>
<path fill-rule="evenodd" clip-rule="evenodd" d="M171.505 242.751L166.673 249.98C166.273 250.579 166.575 251.396 167.269 251.588L173.717 253.374C174.467 253.582 175.175 252.934 175.038 252.167L173.422 243.153C173.254 242.216 172.034 241.961 171.505 242.751ZM172.556 243.863L173.999 252.354L168.392 249.979L172.556 243.863Z" fill="#FFB61D"/>
<path fill-rule="evenodd" clip-rule="evenodd" d="M155.96 235.691L150.266 244.849C149.902 245.434 150.185 246.206 150.84 246.416L160.782 249.609C161.61 249.875 162.386 249.081 162.103 248.257L157.855 235.906C157.565 235.064 156.43 234.935 155.96 235.691ZM157.31 236.807L160.22 248.257L151.599 244.849L157.31 236.807Z" fill="#FFB61D"/>
<path fill-rule="evenodd" clip-rule="evenodd" d="M152.451 304.976L156.325 319.56C156.563 320.456 157.755 320.634 158.243 319.845L164.002 310.542C164.321 310.026 164.143 309.348 163.611 309.056L153.979 303.776C153.164 303.329 152.213 304.077 152.451 304.976ZM153.472 305.409L162.4 309.985L157.345 319.288L153.472 305.409Z" fill="#FFB61D"/>
<path fill-rule="evenodd" clip-rule="evenodd" d="M144.695 358.529L146.807 368.526C147.001 369.443 148.202 369.673 148.72 368.892L154.426 360.291C154.847 359.657 154.48 358.798 153.732 358.664L145.914 357.268C145.176 357.136 144.54 357.794 144.695 358.529ZM146.538 358.371L153.313 360.777L147.467 367.465L146.538 358.371Z" fill="#FFB61D"/>
<path fill-rule="evenodd" clip-rule="evenodd" d="M162.998 356.412L165.11 366.409C165.304 367.327 166.505 367.557 167.023 366.776L172.728 358.175C173.149 357.54 172.783 356.681 172.034 356.548L164.217 355.152C163.479 355.02 162.843 355.678 162.998 356.412ZM163.975 357.282L171.863 357.064L165.372 365.42L163.975 357.282Z" fill="#FFB61D"/>
<path fill-rule="evenodd" clip-rule="evenodd" d="M153.143 335.957L155.255 345.954C155.448 346.872 156.649 347.102 157.167 346.321L162.873 337.72C163.294 337.085 162.928 336.226 162.179 336.093L154.361 334.697C153.624 334.565 152.988 335.223 153.143 335.957ZM154.176 335.738L161.29 337.84L155.584 345.03L154.176 335.738Z" fill="#FFB61D"/>
<path fill-rule="evenodd" clip-rule="evenodd" d="M386.91 368.308C386.38 369.346 385.509 369.78 384.348 369.844C380.215 370.075 376.938 368.247 374.014 365.585C372.905 364.576 371.922 363.428 370.812 362.422C370.03 361.714 369.193 361.253 367.973 361.691C367.04 362.027 365.944 361.9 364.923 362.004C362.62 362.24 360.324 362.547 358.017 362.715C356.546 362.822 356.51 364.079 356.165 364.946C355.384 366.908 354.8 368.951 354.179 370.974C353.938 371.759 353.555 372.07 352.674 372.059C348.277 372.005 343.878 372.009 339.48 372.045C337.478 372.062 335.473 372.302 333.474 372.256C329.712 372.171 325.945 372.05 322.194 371.762C318.566 371.482 314.957 370.958 311.336 370.571C308.793 370.299 306.234 370.156 303.702 369.811C300.757 369.41 297.837 368.827 294.898 368.375C293.428 368.148 291.933 368.081 290.461 367.864C287.937 367.492 285.413 367.105 282.905 366.637C280.578 366.203 278.389 366.653 276.198 367.378C271.934 368.788 267.659 370.166 263.381 371.537C262.62 371.781 262.395 371.981 262.738 372.907C263.999 376.303 265.179 379.737 266.205 383.212C266.929 385.663 267.429 388.19 267.894 390.708C268.463 393.793 268.939 396.898 269.363 400.008C269.687 402.383 269.893 404.776 270.106 407.165C270.376 410.201 270.632 413.24 270.836 416.281C271.04 419.31 271.21 422.343 271.325 425.376C271.52 430.528 271.666 435.681 271.82 440.833C271.914 443.953 271.973 447.074 272.075 450.194C272.104 451.1 272.395 452.029 272.257 452.898C272.153 453.554 271.688 454.471 271.155 454.677C269.78 455.208 269.383 456.233 269.395 457.643C269.41 459.445 269.636 461.248 269.589 463.046C269.559 464.192 269.997 464.992 270.828 465.599C274.607 468.361 278.422 471.071 282.199 473.835C283.991 475.146 285.759 476.497 287.477 477.904C289.317 479.412 291.12 480.969 292.874 482.575C294.622 484.177 295.552 486.135 295.846 488.577C296.075 490.47 295.833 492.229 295.518 494.031C295.353 494.969 294.819 495.353 293.845 495.034C289.755 493.697 285.672 492.334 281.562 491.06C274.773 488.955 267.966 486.911 261.166 484.842C258.742 484.105 256.318 483.369 253.891 482.641C252.404 482.195 252.09 480.86 251.814 479.65C251.03 476.212 252.043 473.083 253.853 470.2C254.961 468.435 256.252 466.786 257.463 465.087C258.452 463.699 258.197 462.278 257.707 460.776C256.113 455.888 254.546 450.99 253.038 446.074C251.551 441.221 250.077 436.362 248.729 431.469C247.304 426.298 246.012 421.089 244.709 415.885C244.004 413.069 243.34 410.24 242.769 407.395C242.342 405.267 242.101 403.102 241.766 400.955C241.365 398.391 241.124 395.783 240.465 393.286C240.182 392.211 239.141 391.228 238.233 390.45C236.257 388.754 233.987 387.49 231.521 386.627C230.911 386.414 230.251 386.266 229.608 386.242C226.548 386.126 223.485 386.096 220.425 385.973C217.437 385.852 214.45 385.686 211.465 385.484C208.388 385.277 205.312 385.028 202.24 384.752C198.952 384.456 195.651 384.221 192.387 383.749C188.926 383.248 185.496 382.52 182.062 381.847C180.945 381.628 180.129 382.307 179.956 383.885C179.577 387.335 178.407 390.541 177.017 393.68C176.015 395.943 174.124 397.075 171.792 397.461C170.127 397.737 168.421 398 166.746 397.936C161.979 397.756 157.727 396.181 153.946 393.151C149.15 389.309 146.343 384.176 143.954 378.703C142.883 376.25 141.505 373.91 140.665 371.385C139.752 368.644 139.29 365.75 138.655 362.917C138.16 360.713 137.655 358.509 137.239 356.289C136.91 354.533 136.703 352.754 136.453 350.984C136.121 348.633 135.793 346.28 135.478 343.926C135.373 343.148 135.27 342.365 135.237 341.581C135.135 339.128 135.085 336.673 134.981 334.22C134.835 330.78 134.563 327.342 134.518 323.901C134.44 318.015 134.448 312.128 134.519 306.242C134.55 303.657 134.768 301.071 135 298.494C135.263 295.564 135.663 292.648 135.954 289.721C136.162 287.632 136.227 285.527 136.466 283.442C136.817 280.383 137.202 277.325 137.69 274.285C138.271 270.67 138.935 267.066 139.637 263.472C140.966 256.671 142.511 249.911 145.042 243.449C146.654 239.332 148.337 235.132 151.628 232.025C153.053 230.679 155.032 229.904 156.802 228.949C161.661 226.329 166.545 223.756 171.405 221.138C171.632 221.016 171.827 220.66 171.864 220.389C171.993 219.451 171.936 218.474 172.166 217.567C172.316 216.976 172.73 216.328 173.219 215.97C174.858 214.772 176.576 213.68 178.286 212.581C178.592 212.385 179.025 212.212 179.361 212.267C181.164 212.558 182.068 211.447 182.686 210.08C183.523 208.228 184.286 206.334 184.935 204.408C186.01 201.22 187.095 198.023 187.908 194.763C188.189 193.638 187.757 192.297 187.503 191.085C186.988 188.62 186.56 186.109 185.729 183.746C185.198 182.235 184.124 180.865 183.097 179.59C180.443 176.294 179.048 172.602 179.495 168.371C179.689 166.535 180.475 164.823 181.846 163.489C183.46 161.918 185.115 160.39 186.733 158.824C187.914 157.683 187.829 156.811 186.292 155.695C184.142 154.134 182.079 152.447 180.022 150.761C178.265 149.322 177.509 147.265 177.044 145.157C176.41 142.289 176.334 139.395 177.502 136.596C179.369 132.119 182.06 128.424 186.987 127.03C191.328 125.803 195.659 125.886 199.556 128.352C203.096 130.592 205.345 133.929 206.334 138.048C207.495 142.882 206.173 147.232 203.735 151.369C203.531 151.715 203.51 152.17 203.404 152.575C203.766 152.644 204.127 152.757 204.492 152.774C209.181 152.988 213.842 153.51 218.042 155.749C223.555 158.688 227.022 163.347 228.552 169.411C228.781 170.318 228.779 171.294 228.809 172.241C228.911 175.469 228.92 178.701 229.11 181.923C229.149 182.596 229.663 183.422 230.213 183.853C232.848 185.921 233.745 190.985 231.294 193.983C231.048 194.283 230.84 194.613 230.599 194.917C229.657 196.105 228.291 196.681 226.932 196.439C225.773 196.232 225.675 196.623 225.293 197.479C224.477 199.307 223.499 201.075 222.444 202.779C221.031 205.064 219.588 207.345 217.954 209.471C216.968 210.755 215.634 211.788 214.385 212.848C212.869 214.134 211.266 215.317 209.722 216.571C208.953 217.196 208.109 217.519 207.125 217.377C206.105 217.23 205.531 217.805 205.232 218.632C204.655 220.231 204.134 221.853 203.678 223.49C203.582 223.835 203.786 224.338 203.994 224.681C205.814 227.683 207.622 230.693 209.523 233.642C211.067 236.036 212.821 238.296 214.315 240.718C215.238 242.216 215.85 243.908 216.598 245.514C217.903 248.317 219.236 251.107 220.483 253.936C220.74 254.518 220.81 255.263 220.72 255.898C220.59 256.823 219.679 257.118 218.693 256.522C217.546 255.828 216.467 255.017 215.393 254.21C214.729 253.711 214.131 253.122 213.499 252.578C213.426 252.515 213.328 252.481 213.242 252.433C213.228 252.544 213.189 252.658 213.205 252.764C213.381 254.008 213.523 255.259 213.76 256.492C214.006 257.765 214.379 259.013 214.637 260.284C215.15 262.809 215.645 265.337 216.104 267.872C216.62 270.723 217.116 273.578 217.564 276.441C217.795 277.912 217.873 279.407 218.072 280.884C218.372 283.118 218.749 285.341 219.03 287.577C219.183 288.798 219.216 290.036 219.284 291.267C219.376 292.945 219.438 294.625 219.534 296.304C219.771 300.444 220.01 304.584 220.271 308.723C220.336 309.749 220.938 310.538 221.86 310.832C224.483 311.666 226.317 314.735 225.875 317.296C225.773 317.892 225.641 318.508 225.379 319.045C224.752 320.333 225.57 321.064 226.384 321.734C227.705 322.822 229.083 323.844 230.463 324.858C233.74 327.264 237.039 329.639 240.316 332.045C243.284 334.225 246.559 335.74 250.074 336.814C252.896 337.677 255.296 339.311 257.552 341.195C258.66 342.121 259.619 343.491 261.374 343.153C263.858 342.674 266.334 342.156 268.812 341.644C269.558 341.49 270.292 341.264 271.042 341.135C273.656 340.684 275.199 338.831 276.738 336.914C277.883 335.488 279.159 334.168 280.35 332.778C282.693 330.044 285.011 327.288 287.353 324.553C288.517 323.193 289.716 321.863 290.891 320.513C294.205 316.71 297.499 312.889 300.833 309.103C302.581 307.119 304.401 305.199 306.18 303.242C306.658 302.715 307.17 302.201 307.549 301.606C308.125 300.7 308.712 300.422 309.837 300.787C312.296 301.585 312.252 301.433 310.533 303.323C307.453 306.707 304.476 310.185 301.444 313.613C299.961 315.289 298.43 316.921 296.959 318.607C294.379 321.566 291.838 324.559 289.263 327.523C287.436 329.627 285.586 331.711 283.736 333.795C282.305 335.408 280.853 337.002 279.427 338.619C279.302 338.76 279.204 339.151 279.248 339.179C279.597 339.398 279.989 339.722 280.357 339.707C283.345 339.591 286.329 339.361 289.318 339.259C291.555 339.183 293.799 339.182 296.036 339.26C298.903 339.359 301.774 339.483 304.628 339.757C307.809 340.063 310.971 340.553 314.142 340.956C317.394 341.369 320.656 341.709 323.896 342.198C327.133 342.688 330.345 343.347 333.575 343.886C336.251 344.331 338.946 344.663 341.618 345.129C345.025 345.723 348.416 346.414 351.818 347.04C354.207 347.48 356.606 347.863 358.995 348.303C361.298 348.727 363.589 349.219 365.895 349.629C367.348 349.887 368.814 350.148 370.282 350.209C370.898 350.234 371.682 349.899 372.139 349.464C375.632 346.135 379.017 342.692 382.526 339.38C386.452 335.673 390.558 332.173 394.985 329.062C397.011 327.639 399.28 327.887 401.486 328.079C402.773 328.191 404.017 328.812 405.277 329.213C406.311 329.542 406.403 330.182 405.943 331.086C403.854 335.193 401.802 339.319 399.713 343.426C397.907 346.976 396.068 350.508 394.182 354.11C391.718 358.883 389.318 363.598 386.91 368.308ZM193.603 338.018C194.701 334.837 195.665 331.602 196.531 328.349C197.093 326.236 197.412 324.054 197.774 321.891C198.145 319.669 198.456 317.436 198.756 315.203C199.105 312.61 199.647 310.014 199.689 307.413C199.774 302.19 199.558 296.962 199.501 291.736C199.466 288.543 199.447 285.347 199.509 282.154C199.558 279.642 198.1 277.77 197.037 275.711C196.329 274.339 195.582 272.956 195.13 271.491C194.301 268.806 193.627 266.068 192.984 263.33C192.545 261.457 192.221 259.553 191.932 257.65C191.598 255.448 190.875 253.38 189.937 251.382C189.858 251.214 189.199 251.092 189.128 251.187C188.75 251.694 188.468 252.274 188.163 252.835C187.619 253.832 186.793 254.781 186.605 255.843C186.228 257.965 185.252 259.786 184.254 261.607C183.633 262.74 182.587 262.769 181.861 261.73C181.08 260.612 180.236 259.483 179.738 258.233C178.566 255.292 177.517 252.297 176.542 249.285C175.26 245.325 174.051 241.341 172.9 237.341C172.299 235.253 171.7 233.132 171.448 230.985C171.2 228.88 171.396 226.723 171.39 224.589C171.389 224.398 171.331 224.208 171.299 224.017C171.213 224.085 171.134 224.166 171.039 224.219C168.807 225.449 166.588 226.706 164.334 227.896C162.099 229.076 159.853 230.241 157.565 231.316C155.059 232.493 152.544 233.707 151.092 236.174C149.521 238.842 147.686 241.385 146.74 244.393C145.764 247.494 144.661 250.559 143.812 253.693C142.944 256.9 142.352 260.18 141.57 263.411C141.07 265.475 140.246 267.477 139.918 269.562C139.418 272.743 139.108 275.965 138.929 279.181C138.775 281.942 138.787 284.709 138.415 287.459C138.126 289.595 137.93 291.742 137.67 293.881C137.274 297.139 136.563 300.389 136.512 303.65C136.399 310.871 136.696 318.097 136.662 325.32C136.645 329.106 137.208 332.807 137.653 336.538C138.147 340.68 138.44 344.846 138.912 348.992C139.232 351.809 139.553 354.643 140.152 357.409C141.129 361.911 142.178 366.41 143.482 370.825C145.108 376.335 147.497 381.525 150.86 386.233C152.962 389.174 155.527 391.584 158.694 393.316C162.988 395.664 167.592 395.461 172.205 394.744C172.962 394.626 173.941 394.043 174.265 393.398C175.173 391.588 175.966 389.679 176.483 387.724C177.218 384.946 177.543 382.061 178.263 379.278C179.452 374.691 180.947 370.18 182.067 365.578C182.989 361.786 184.747 358.365 186.274 354.84C187.398 352.246 188.727 349.741 190.087 347.074C191.268 344.059 192.547 341.077 193.603 338.018ZM234.13 384.851C236.352 386.211 238.53 387.654 240.644 389.177C241.964 390.128 242.912 391.51 243.202 393.108C243.872 396.809 244.316 400.55 244.964 404.255C245.418 406.855 246.071 409.42 246.612 412.005C247.052 414.11 247.458 416.222 247.875 418.332C248.285 420.405 248.685 422.48 249.1 424.552C249.416 426.131 249.743 427.708 250.077 429.284C250.616 431.832 251.045 434.411 251.741 436.915C252.428 439.382 253.46 441.751 254.213 444.201C255.467 448.28 257.022 452.228 258.824 456.093C259.251 457.01 259.97 456.825 260.395 456.658C263.091 455.601 265.751 454.447 268.393 453.258C269.226 452.883 269.669 452.157 269.631 451.164C269.527 448.467 269.454 445.768 269.381 443.07C269.292 439.842 269.217 436.614 269.134 433.386C269.054 430.225 269.036 427.062 268.872 423.906C268.712 420.822 268.41 417.746 268.155 414.668C267.838 410.833 267.543 406.997 267.167 403.168C266.908 400.524 266.67 397.864 266.171 395.26C265.307 390.751 264.245 386.28 263.271 381.792C262.135 376.562 259.941 372.005 255.603 368.582C252.299 365.975 248.832 363.647 245.085 361.787C240.939 359.73 236.747 357.727 232.444 356.036C227.525 354.103 222.747 351.66 217.33 351.215C214.728 351.001 212.147 350.544 209.549 350.268C207.465 350.046 205.363 349.983 203.28 349.754C199.983 349.392 196.698 348.912 193.398 348.587C192.935 348.542 192.239 348.977 191.955 349.397C191.302 350.361 190.811 351.439 190.302 352.494C188.712 355.789 186.849 358.989 185.639 362.42C184.04 366.953 182.955 371.668 181.658 376.308C180.924 378.936 180.908 379.054 183.196 379.534C185.842 380.09 188.531 380.459 191.212 380.829C192.966 381.071 194.743 381.137 196.503 381.34C199.839 381.724 203.166 382.183 206.504 382.544C208.628 382.774 210.763 382.912 212.896 383.039C216.084 383.229 219.274 383.406 222.465 383.522C224.376 383.592 226.292 383.535 228.45 383.535C230.454 383.498 232.412 383.798 234.13 384.851ZM329.896 369.584C331.952 369.68 334.008 369.782 336.065 369.825C340.835 369.927 345.605 370.008 350.376 370.066C351.328 370.077 352.186 369.682 352.443 368.7C353.825 363.413 356.543 358.511 356.892 352.918C356.981 351.5 356.367 350.498 354.921 350.245C353.414 349.98 351.925 349.609 350.421 349.322C348.53 348.961 346.631 348.644 344.737 348.296C343.037 347.983 341.339 347.657 339.642 347.329C338.399 347.088 337.162 346.823 335.919 346.587C333.538 346.136 331.156 345.695 328.774 345.258C327.145 344.959 325.517 344.652 323.883 344.389C322.615 344.186 321.335 344.057 320.064 343.872C317.379 343.479 314.696 343.072 312.012 342.669C310.479 342.439 308.95 342.187 307.414 341.979C305.365 341.702 303.311 341.234 301.261 341.246C296.117 341.275 290.973 341.501 285.831 341.702C283.371 341.799 280.908 341.936 278.464 342.212C277.096 342.367 275.78 342.8 274.788 343.955C273.172 345.836 271.437 347.614 269.804 349.482C268.773 350.661 267.807 351.901 266.865 353.153C265.618 354.809 264.098 355.816 261.924 355.647C258.363 355.371 254.797 355.169 251.237 354.895C249.915 354.793 248.6 354.596 247.286 354.412C245.058 354.099 242.837 353.737 240.606 353.444C238.473 353.164 236.333 352.932 234.192 352.712C233.588 352.65 232.971 352.684 232.362 352.718C232.241 352.725 232.131 352.932 232.015 353.047C232.14 353.105 232.266 353.158 232.388 353.221C233.459 353.781 234.502 354.405 235.605 354.893C238.839 356.324 242.174 357.548 245.327 359.136C249.905 361.443 254.177 364.26 258.061 367.646C259.265 368.696 260.421 369.476 262.396 369.212C265.527 368.795 268.453 368.021 271.262 366.652C275.044 364.809 278.891 363.297 283.239 364.2C285.754 364.722 288.284 365.18 290.796 365.72C292.387 366.062 293.94 366.625 295.543 366.863C297.532 367.159 299.557 367.212 301.565 367.387C305.216 367.705 308.867 368.044 312.519 368.361C314.998 368.577 317.479 368.771 320.082 369.098C323.353 369.261 326.624 369.431 329.896 369.584ZM202.66 298.89C202.696 299.867 202.657 300.847 202.673 301.826C202.749 306.4 202.821 310.974 202.923 315.547C202.953 316.874 202.895 318.243 203.198 319.516C203.813 322.093 204.619 324.626 205.404 327.159C205.74 328.244 206.207 329.277 207.431 329.706C208.496 330.079 209.527 330.549 210.594 330.916C212.177 331.461 212.662 331.255 213.695 329.804C214.036 329.324 214.43 328.88 214.814 328.432C217.287 325.542 219.835 322.713 222.218 319.75C223.976 317.563 223.671 314.043 220.727 312.914C220.41 312.792 220.096 312.646 219.767 312.578C218.028 312.217 218.108 312.222 218.05 310.575C217.844 304.69 218.533 298.79 217.61 292.912C217.242 290.565 217.393 288.138 217.055 285.785C216.528 282.122 215.798 278.489 215.129 274.848C214.496 271.404 213.861 267.96 213.168 264.528C212.65 261.967 212.028 259.427 211.471 256.874C211.046 254.927 210.712 252.957 210.198 251.034C210.06 250.514 209.416 250.13 209.004 249.683C208.522 250.149 207.677 250.575 207.619 251.089C207.324 253.698 206.922 256.357 207.151 258.946C207.414 261.919 207.859 264.867 207.292 267.82C206.647 271.184 205.573 274.414 203.753 277.358C202.745 278.989 201.991 280.682 202.163 282.701C202.333 284.699 202.388 286.709 202.416 288.715C202.457 291.568 202.427 294.423 202.427 297.522C202.508 297.978 202.643 298.432 202.66 298.89ZM189.848 197.812C189.642 198.131 189.358 198.423 189.244 198.772C188.083 202.33 187.024 205.923 185.783 209.452C185.036 211.578 183.863 213.475 181.924 214.812C180.516 215.782 179.202 216.89 177.823 217.906C177.143 218.408 177.287 218.842 177.711 219.45C178.979 221.271 180.32 223.063 181.379 225.004C182.84 227.684 184.092 230.48 185.392 233.245C186.66 235.94 187.983 238.616 189.08 241.38C190.013 243.728 190.514 246.25 191.473 248.585C192.34 250.696 193.271 252.777 193.585 255.038C193.692 255.806 193.94 255.813 194.522 255.811C198.016 255.798 201.39 255.336 204.336 253.252C204.588 253.073 204.801 252.707 204.849 252.4C204.965 251.656 204.945 250.892 205.032 250.143C205.093 249.614 205.438 249.043 205.314 248.582C204.855 246.868 204.244 245.196 203.71 243.502C202.69 240.266 201.353 237.065 201.261 233.651C201.168 230.177 201.48 226.688 201.718 223.213C201.815 221.795 202.092 220.372 202.45 218.994C202.87 217.378 202.77 216.936 201.314 216.147C198.918 214.85 196.852 213.105 195.375 210.855C192.966 207.183 191.114 203.231 190.453 198.663C190.252 198.379 190.05 198.095 189.848 197.812ZM224.607 196.728C224.673 196.596 225.266 196.184 224.384 196.035C223.493 195.885 222.488 195.451 221.876 194.812C220.676 193.559 219.684 192.099 218.675 190.675C218.39 190.272 218.289 190.027 217.888 190.51C217.633 190.817 217.302 191.06 217.048 191.368C214.844 194.035 211.674 195.168 208.706 194.426C205.147 193.538 202.978 189.737 202.929 186.439C202.91 185.124 202.495 184.023 201.447 183.267C199.703 182.008 197.909 180.818 196.116 179.628C195.113 178.963 194.157 179.18 193.898 180.23C193.256 182.83 192.458 185.435 192.234 188.081C191.957 191.355 192.089 194.661 192.869 197.928C194.183 203.431 195.89 208.662 200.373 212.54C203.263 215.041 206.834 215.604 210.275 214.09C213.686 212.59 215.782 209.816 217.82 206.928C219.534 204.501 221.242 202.07 223.074 199.519C223.592 198.592 224.13 197.675 224.607 196.728ZM372.314 360.196C374.683 363.218 377.44 365.74 381.212 366.96C383.541 367.713 384.394 367.581 385.683 365.118C388.314 360.095 390.913 355.056 393.505 350.013C394.54 347.999 395.497 345.945 396.535 343.931C398.56 339.999 400.612 336.08 402.666 332.162C403.04 331.447 402.684 330.799 402.132 330.725C400.216 330.469 398.194 329.921 396.415 331.107C394.069 332.67 391.707 334.243 389.549 336.048C386.275 338.786 383.122 341.674 380.017 344.604C378.609 345.934 377.419 347.5 376.167 348.99C375.178 350.167 373.908 351.158 373.532 352.766C373.184 354.254 372.841 355.742 372.496 357.474C372.09 358.362 371.636 359.332 372.314 360.196ZM291.612 491.53C292.17 491.574 293.246 491.32 293.251 491.169C293.323 489.063 293.721 486.831 291.835 485.186C289.382 483.049 287.006 480.813 284.449 478.81C280.322 475.578 276.076 472.499 271.877 469.36C270.377 468.238 268.886 467.047 266.976 466.755C265.267 466.493 263.525 466.459 261.81 466.229C260.363 466.035 259.378 466.664 258.5 467.707C256.37 470.237 254.82 473.05 254.234 476.335C253.775 478.91 254.602 480.329 256.677 480.94C260.627 482.106 264.549 483.366 268.491 484.558C271.316 485.412 274.167 486.181 276.987 487.053C281.099 488.325 285.192 489.655 289.538 490.96C290.228 491.162 290.91 491.475 291.612 491.53ZM208.657 332.876C205.929 331.794 203.218 330.671 200.483 329.606C199.675 329.291 198.988 329.198 198.721 330.445C198.432 331.798 197.816 333.08 197.37 334.402C196.381 337.336 195.388 340.269 194.451 343.219C194.278 343.765 194.015 344.53 195.09 344.634C196.491 344.77 197.884 345.004 199.286 345.106C202.026 345.306 204.767 345.502 207.511 345.593C211.588 345.727 215.668 345.776 219.746 345.847C221.048 345.87 222.352 345.847 223.654 345.854C223.971 345.856 224.307 345.833 224.602 345.925C228.133 347.031 231.652 348.176 235.186 349.271C238.741 350.373 242.302 351.454 246.101 351.242C247.419 351.168 247.661 350.92 247.176 349.705C246.912 349.041 246.544 348.366 246.057 347.854C243.678 345.356 240.774 343.613 237.666 342.179C235.19 341.036 232.77 339.762 229.986 339.475C228.682 339.341 227.369 339.153 226.103 338.825C224.092 338.303 222.097 337.699 220.131 337.028C217.673 336.189 215.25 335.247 212.567 334.35C211.263 333.86 209.952 333.389 208.657 332.876ZM177.98 224.852C176.837 223.077 175.633 221.341 174.452 219.59C174.287 219.347 174.108 219.113 173.935 218.875C173.821 219.276 173.661 219.67 173.601 220.079C173.406 221.43 173.296 222.795 173.065 224.139C172.606 226.8 172.357 229.415 174.078 231.78C174.187 231.93 174.273 232.109 174.322 232.288C174.955 234.593 175.577 236.902 176.208 239.208C176.368 239.792 176.534 240.375 176.726 240.949C177.549 243.418 178.547 245.844 179.168 248.363C179.805 250.95 180.293 253.551 181.617 255.914C181.997 256.593 182.12 257.413 182.401 258.153C182.485 258.374 182.761 258.73 182.848 258.703C183.128 258.615 183.497 258.43 183.591 258.188C184.684 255.376 185.21 252.305 187.284 249.944C189.045 247.938 188.679 245.889 187.599 243.748C187.177 242.911 186.916 241.994 186.539 241.133C185.724 239.27 184.944 237.388 184.032 235.573C183.235 233.987 182.271 232.487 181.394 230.941C180.777 229.854 180.183 228.754 179.457 227.538C178.968 226.64 178.532 225.709 177.98 224.852ZM243.981 337.157C240.413 334.847 236.795 332.604 233.337 330.136C230.441 328.07 227.758 325.707 224.944 323.524C224.185 322.934 223.313 322.739 222.537 323.627C221.28 325.066 219.999 326.485 218.743 327.926C217.808 328.999 216.91 330.104 215.974 331.176C215.242 332.014 215.319 332.463 216.39 332.784C219.833 333.816 223.302 334.765 226.734 335.829C231.42 337.283 236.101 338.759 240.744 340.342C242.23 340.848 243.539 341.87 245.024 342.384C246.531 342.905 248.142 343.177 249.729 343.399C251.564 343.655 253.421 343.757 255.272 343.872C255.567 343.891 255.879 343.626 256.184 343.493C256.003 343.242 255.867 342.937 255.635 342.747C252.701 340.342 249.198 339.1 245.555 337.776C245.027 337.574 244.445 337.457 243.981 337.157ZM197.517 272.703C197.971 274.427 199.049 275.266 200.709 275.422C202.142 275.557 202.563 274.769 202.912 273.72C203.413 272.217 203.908 270.713 204.378 269.2C205.421 265.84 205.272 262.455 204.648 259.039C204.444 257.926 204.492 256.765 204.441 255.625C204.433 255.46 204.517 255.29 204.559 255.122C204.392 255.171 204.218 255.205 204.058 255.272C203.051 255.689 202.083 256.266 201.037 256.502C199.077 256.943 197.08 257.234 195.085 257.49C194.316 257.588 193.859 257.669 194.104 258.613C194.335 259.504 194.427 260.431 194.611 261.336C195.007 263.286 195.422 265.232 195.829 267.424C196.399 269.182 197.047 270.919 197.517 272.703ZM218.399 254.296C218.589 254.457 218.8 254.593 219.001 254.741C219 254.467 219.075 254.165 218.985 253.925C218.456 252.516 217.962 251.086 217.317 249.729C215.938 246.834 214.672 243.857 212.99 241.143C211.336 238.476 209.109 236.17 207.352 233.558C206.094 231.687 205.203 229.569 204.129 227.572C203.964 227.265 203.691 227.016 203.468 226.74C203.365 227.064 203.167 227.39 203.175 227.712C203.226 229.798 203.253 231.888 203.428 233.966C203.547 235.383 203.785 236.81 204.166 238.179C204.588 239.698 205.353 241.124 205.747 242.649C206.209 244.432 207.054 245.561 208.778 246.513C211.638 248.093 214.588 249.736 216.599 252.742C217.198 253.26 217.795 253.783 218.399 254.296ZM205.671 185.15C204.733 186.519 206.473 191.315 207.419 191.672C214.041 194.169 215.929 189.896 216.016 188.722C216.188 186.394 216.475 184.033 214.278 182.145C208.482 180.99 207.188 182.938 205.671 185.15ZM231.027 187.089C230.137 184.868 228.79 183.419 226.445 183.926C225.248 184.185 224.194 185.135 223.093 185.802C220.729 187.235 220.419 188.019 221.246 190.56C222.073 193.103 224.003 194.559 226.458 195.053C228.49 195.463 229.942 194.2 231.016 192.3C231.286 190.565 231.731 188.847 231.027 187.089ZM222.258 184.217C223.213 183.537 224.247 182.53 225.277 182.493C227.059 182.428 226.77 181.338 226.577 180.479C226.041 178.08 225.339 175.717 224.654 173.353C224.185 171.735 223.788 171.642 222.651 172.782C220.702 174.734 218.728 176.649 216.28 177.996C215.515 178.418 215.41 179.389 215.957 180.154C216.161 180.438 216.437 180.683 216.59 180.99C217.343 182.507 218.025 184.059 218.829 185.547C219.007 185.876 218.871 187.04 220.02 186.183C220.762 185.522 221.454 184.79 222.258 184.217ZM366.052 359.757C367.715 359.448 369.496 359.02 369.753 356.805C369.796 356.433 369.965 356.077 370.049 355.708C370.574 353.417 369.98 352.684 367.691 352.438C365.536 352.206 363.397 351.82 361.255 351.473C360.11 351.288 359.898 351.503 359.772 352.671C359.597 354.289 359.345 355.903 359.043 357.503C358.778 358.905 359.17 360.014 360.4 360.288C362.287 360.125 364.199 360.102 366.052 359.757ZM266.269 464.006C266.502 463.995 266.897 463.533 266.906 463.269C266.963 461.519 266.921 459.766 266.941 458.014C266.952 457.03 266.199 456.997 265.659 457.17C264.482 457.545 263.363 458.105 262.228 458.605C261.407 458.967 260.485 459.26 260.585 460.445C260.655 461.282 260.655 462.138 260.847 462.947C261.167 464.291 262.325 463.652 263.27 463.92C264.27 463.961 265.273 464.05 266.269 464.006ZM201.187 321.659C201.116 321.46 200.827 321.338 200.639 321.181C200.502 321.377 200.263 321.565 200.244 321.772C200.129 323.03 200.031 324.292 199.993 325.555C199.955 326.788 200.827 327.588 202.079 327.474C202.291 327.455 202.667 327.08 202.64 326.93C202.455 325.928 202.182 324.942 201.816 323.828C201.612 323.103 201.437 322.368 201.187 321.659ZM270.031 344.776C270.167 344.508 270.452 343.758 269.623 343.914C268.359 344.151 267.116 344.511 265.873 344.85C265.646 344.912 265.46 345.126 265.255 345.269C265.492 345.381 265.727 345.582 265.968 345.591C266.982 345.627 267.998 345.606 269.135 345.484C269.446 345.254 269.876 345.085 270.031 344.776ZM175.67 216.404C175.475 216.517 175.28 216.631 175.086 216.744C175.239 216.915 175.364 217.153 175.556 217.233C175.67 217.281 175.92 217.116 176.052 216.988C176.805 216.258 177.543 215.514 178.277 214.766C178.424 214.616 178.531 214.426 178.656 214.255C178.409 214.304 178.099 214.274 177.926 214.414C177.192 215.009 176.5 215.654 175.67 216.404Z" fill="#00160A"/>
<path fill-rule="evenodd" clip-rule="evenodd" d="M201.853 202.149C200.709 201.529 199.576 201.02 199.338 199.639C198.876 196.954 199.842 193.791 203.334 193.974C206.483 194.14 208.481 196.76 207.367 199.72C206.546 201.902 204.552 202.984 201.853 202.149Z" fill="#FFB61D"/>
<path fill-rule="evenodd" clip-rule="evenodd" d="M217.383 192.133C217.445 191.722 217.508 191.434 217.571 191.146C217.67 191.397 217.797 191.641 217.863 191.901C218.355 193.826 219.912 198.621 218.057 200.828C217.903 201.011 217.121 201.04 216.634 201.009C215.676 200.949 214.56 199.534 214.738 198.621C214.764 198.484 217.075 200.731 217.571 199.515C218.398 197.487 217.383 192.831 217.383 192.133Z" fill="#00160A"/>
<path fill-rule="evenodd" clip-rule="evenodd" d="M204.348 206.185C204.251 206.136 204.118 206.149 204.003 206.154C203.718 206.165 203.329 205.655 203.495 205.438C203.744 205.113 204.028 204.785 204.366 204.571C204.567 204.443 204.901 204.857 204.875 205.04C204.857 205.176 204.986 205.39 205.112 205.483C207.025 206.891 209.149 207.803 211.473 208.242C211.627 208.271 211.76 208.408 211.903 208.495C211.761 208.594 211.619 208.787 211.476 208.779C208.94 208.63 206.009 207.029 204.348 206.185Z" fill="#00160A"/>
<path fill-rule="evenodd" clip-rule="evenodd" d="M142.574 316.453L140.166 326.758C139.979 327.555 140.728 328.253 141.508 328.01L149.868 325.402C150.571 325.182 150.84 324.327 150.389 323.743L144.437 316.046C143.892 315.342 142.776 315.586 142.574 316.453ZM143.602 318.105L148.85 324.391L141.194 326.999L143.602 318.105Z" fill="#FFB61D"/>
<path fill-rule="evenodd" clip-rule="evenodd" d="M150.045 256.998C149.165 256.919 148.583 257.893 149.069 258.633L155.193 267.962C155.606 268.591 156.524 268.598 156.948 267.977L162.585 259.706C163.04 259.038 162.611 258.127 161.807 258.055L150.045 256.998ZM150.874 258.055L161.405 260.106L155.194 266.618L150.874 258.055Z" fill="#FFB61D"/>
<path fill-rule="evenodd" clip-rule="evenodd" d="M188.862 328.332H180.223C179.507 328.332 178.998 329.031 179.218 329.714L182.119 338.751C182.393 339.604 183.536 339.751 184.016 338.995L189.753 329.958C190.2 329.253 189.695 328.332 188.862 328.332ZM188.158 330.095L183.829 338.427L180.927 329.39L188.158 330.095Z" fill="#FFB61D"/>
<path fill-rule="evenodd" clip-rule="evenodd" d="M160.556 377.3L160.162 385.134C160.12 385.955 160.988 386.508 161.713 386.121L171.757 380.761C172.608 380.307 172.456 379.041 171.522 378.802L161.873 376.328C161.226 376.163 160.59 376.632 160.556 377.3ZM161.32 378.048L170.55 379.332L161.713 384.566L161.32 378.048Z" fill="#FFB61D"/>
<path fill-rule="evenodd" clip-rule="evenodd" d="M147.237 281.079L139.494 286.457C138.838 286.912 138.903 287.903 139.613 288.268L148.675 292.929C149.433 293.319 150.316 292.696 150.204 291.85L148.886 281.811C148.783 281.026 147.887 280.628 147.237 281.079ZM147.548 282.948L149.157 291.988L140.095 287.327L147.548 282.948Z" fill="#FFB61D"/>
<path fill-rule="evenodd" clip-rule="evenodd" d="M182.769 304.115L177.937 311.343C177.521 311.966 177.865 312.812 178.596 312.967L184.246 314.164C184.944 314.312 185.585 313.738 185.516 313.027L184.698 304.601C184.602 303.612 183.321 303.289 182.769 304.115ZM184.085 305.563V313.304L179.227 311.343L184.085 305.563Z" fill="#FFB61D"/>
<path fill-rule="evenodd" clip-rule="evenodd" d="M183.685 270.063C185.091 269.143 186.324 269.361 185.321 271.384C185.321 271.384 177.991 290.002 175.801 290.223C173.725 290.432 172.722 287.741 169.823 280.048L169.699 279.72C169.688 279.691 169.679 279.662 169.671 279.633L169.655 279.572L169.636 279.538L169.596 279.444L169.249 278.504C168.84 277.384 167.809 275.535 167.264 274.893C166.683 274.209 167.979 273.785 168.936 273.785C170.723 273.785 172.91 274.285 176.348 273.291C180.376 272.126 181.758 271.323 183.685 270.063ZM180.568 279.627L180.471 279.69C179.449 280.321 178.319 280.806 177.084 281.144C175.607 281.549 173.464 281.599 172.077 281.296L171.845 281.241L171.931 281.455C172.713 283.409 173.409 285.668 174.015 286.817L174.227 287.208C174.607 287.893 174.941 288.389 175.211 288.688L175.295 288.776L175.4 288.649C175.852 288.07 177.461 285.892 178.578 283.716L178.695 283.488C179.174 282.548 179.696 281.479 180.261 280.283L180.568 279.627ZM183.585 272.214L183.415 272.31C181.825 273.197 179.195 274.67 176.934 275.324C174.228 276.106 171.934 276.385 170.047 276.135L169.931 276.118L169.997 276.305C170.178 276.81 170.942 279.204 171.212 279.572C172.308 280.585 173.651 280.682 175.295 280.283L175.531 280.222C181.418 279.082 183.585 272.214 183.585 272.214Z" fill="#FFB61D"/>
<path fill-rule="evenodd" clip-rule="evenodd" d="M390.351 337.301C390.586 337.128 390.917 337.178 391.09 337.413C392.309 339.07 394.372 339.151 397.116 337.625C397.371 337.483 397.692 337.575 397.834 337.831C397.975 338.086 397.883 338.408 397.628 338.55C394.472 340.306 391.829 340.201 390.24 338.041C390.067 337.806 390.117 337.475 390.351 337.301Z" fill="#E7EAEE"/>
<path fill-rule="evenodd" clip-rule="evenodd" d="M386.36 341.539C386.576 341.342 386.91 341.358 387.106 341.575C388.955 343.612 391.412 343.728 393.41 342.659C393.667 342.522 393.987 342.619 394.124 342.877C394.262 343.134 394.165 343.455 393.907 343.593C391.521 344.869 388.541 344.728 386.325 342.286C386.129 342.07 386.145 341.736 386.36 341.539Z" fill="#E7EAEE"/>
<path fill-rule="evenodd" clip-rule="evenodd" d="M382.037 345.737C382.25 345.536 382.584 345.546 382.784 345.759C384.565 347.656 388.188 348.583 390.666 347.267C390.924 347.13 391.244 347.228 391.38 347.487C391.517 347.745 391.419 348.065 391.161 348.202C388.226 349.76 384.1 348.704 382.015 346.484C381.815 346.272 381.825 345.937 382.037 345.737Z" fill="#E7EAEE"/>
<path fill-rule="evenodd" clip-rule="evenodd" d="M385.394 362.327C389.101 360.531 385.269 353.873 381.681 356.568C379.381 358.296 381.904 364.02 385.394 362.327Z" fill="#E7EAEE"/>
</svg>
