<svg width="390" height="94" viewBox="0 0 390 94" fill="none" xmlns="http://www.w3.org/2000/svg">
<path d="M51.764 31.5667V46.3386H31.3687H30.7135L23.584 52.2073V66.9263H31.3687V52.2073H51.764V66.9263H59.5487V31.5667H51.764Z" fill="white"/>
<path d="M90.9389 31.6432L69.7969 66.9264H77.8986L90.9389 45.1684L96.9342 55.1654H105.036L90.9389 31.6432Z" fill="white"/>
<path d="M108.572 61.058H100.463L103.978 66.9268H112.087L108.572 61.058Z" fill="white"/>
<path d="M135.662 37.6061C139.53 37.6061 143.031 38.9174 145.561 41.0344L150.936 37.1062C147.104 33.7367 141.672 31.6432 135.662 31.6432C123.989 31.6432 114.527 39.5408 114.527 49.2848C114.527 59.0289 123.989 66.9264 135.662 66.9264C138.558 66.9264 141.313 66.4384 143.821 65.5622L136.219 60.9518C136.036 60.9577 135.853 60.9636 135.662 60.9636C127.934 60.9636 121.671 55.7358 121.671 49.2848C121.671 42.8339 127.934 37.6061 135.662 37.6061Z" fill="white"/>
<path d="M184.286 31.6432H173.719L152.584 49.2848L173.719 66.9264H184.286L163.151 49.2848L184.286 31.6432Z" fill="white"/>
<path d="M307.572 31.6432H293.468H287.803H286.43V66.9264H293.468V37.5061H307.572V31.6432Z" fill="white"/>
<path d="M334.605 31.6432H320.254H313.209L320.254 37.5002V37.5237H334.598V37.5296C338.374 37.6355 341.403 40.2229 341.403 43.4043C341.403 46.5798 338.374 49.1731 334.598 49.2789V49.2848H320.923H315.358H313.209V66.9264H320.923V55.136H334.598C342.375 55.136 348.674 49.8787 348.674 43.3866C348.674 36.9004 342.382 31.6432 334.605 31.6432Z" fill="white"/>
<path d="M390 50.7552L363.934 28.1151V73.3953L390 50.7552Z" fill="white"/>
<path d="M354.344 74.8535V26.6567L382.094 50.7551L354.344 74.8535ZM355.753 29.5735V71.9309L380.136 50.7551L355.753 29.5735Z" fill="white"/>
<path d="M218.118 31.6432V52.8131L189.924 31.6432V40.464L225.149 66.9264H225.86V31.6432H218.118Z" fill="white"/>
<path d="M19.3254 48.0442C13.1539 48.0442 8.13086 43.8513 8.13086 38.7C8.13086 33.5487 13.1539 29.3558 19.3254 29.3558C25.4968 29.3558 30.5199 33.5487 30.5199 38.7C30.5199 43.8513 25.4968 48.0442 19.3254 48.0442ZM19.3254 29.9439C13.5414 29.9439 8.83536 33.8721 8.83536 38.7C8.83536 43.5279 13.5414 47.4561 19.3254 47.4561C25.1093 47.4561 29.8154 43.5279 29.8154 38.7C29.8154 33.8721 25.1093 29.9439 19.3254 29.9439Z" fill="white"/>
<path d="M38.5811 31.8019C38.0034 30.7669 33.713 31.3432 27.7952 33.0544C28.2883 33.566 28.711 34.1188 29.0562 34.7127C29.7889 34.6716 30.2539 34.7657 30.3877 35.0009C30.5286 35.2479 30.2821 35.6301 29.7185 36.1064C28.2531 37.3472 24.6531 39.2172 20.2359 40.9402C16.2695 42.4927 12.6202 43.5394 10.4081 43.8393C9.21044 44.004 8.43549 43.951 8.25937 43.6335C8.09029 43.3336 8.49185 42.8337 9.33725 42.2104C9.04841 41.6518 8.83001 41.0578 8.68911 40.4463C2.9897 43.2571 -0.532804 45.7623 0.0660221 46.8325C0.678938 47.9263 5.44136 47.2206 11.8875 45.28C14.6492 44.445 17.7208 43.3865 20.9052 42.1457C24.3361 40.805 27.4852 39.4172 30.1412 38.0999C35.7349 35.3243 39.1729 32.8604 38.5811 31.8019Z" fill="white"/>
<path d="M255.449 52.8661H255.442V56.8884H257.71H259.979V52.8661H259.964C261.726 52.3192 263.212 51.1431 264.135 49.6083L275.485 55.9651V44.057L271.236 37.5296C271.406 35.7596 271.497 33.9366 271.497 32.0843C271.497 17.0771 265.706 4.35748 257.71 0C249.714 4.35748 243.923 17.0771 243.923 32.0843C243.923 33.9366 244.015 35.7537 244.184 37.5296L239.936 44.057V55.9651L251.285 49.6083C252.208 51.1431 253.687 52.3192 255.449 52.8661ZM257.703 21.1053C261.162 21.1053 263.973 23.4457 263.973 26.339C263.973 29.2263 261.162 31.5668 257.703 31.5668C254.244 31.5668 251.433 29.2263 251.433 26.339C251.433 23.4457 254.244 21.1053 257.703 21.1053Z" fill="white"/>
<path d="M303.278 79.8632H300.431H291.618C292.351 79.0458 292.759 78.152 292.759 77.2052C292.759 73.9063 287.828 71.1777 281.368 70.6543C281.368 70.6191 281.375 70.5897 281.375 70.5544C281.375 66.7497 275.006 63.5448 266.319 62.5568V58.0876L261.423 55.7472V58.0876V62.2511C261.17 62.2452 260.916 62.2452 260.655 62.2452C260.43 62.2452 260.211 62.2511 259.993 62.2511V58.0935H257.711H255.428V62.5157C254.942 62.5686 254.463 62.6215 253.998 62.6862V58.0935V55.7472L249.102 58.0876V63.6565C244.135 64.9973 240.697 67.1789 240.049 69.6899C238.731 69.49 237.336 69.3783 235.885 69.3783C228.495 69.3783 222.394 72.1715 221.302 75.8174C220.9 75.788 220.492 75.7704 220.076 75.7704C215.666 75.7704 211.876 77.4581 210.262 79.8632H182.695C184.597 83.4268 191.903 86.079 200.625 86.079C202.809 86.079 204.901 85.9143 206.846 85.6085C209.523 90.407 220.287 94 233.166 94C244.875 94 254.836 91.0304 258.563 86.8846C259.246 86.9375 259.937 86.9728 260.655 86.9728C261.191 86.9728 261.719 86.9552 262.24 86.9258C265.354 90.1012 273.999 91.6008 283.7 90.3247C293.57 89.0369 301.354 85.291 302.968 81.4039C305.659 82.2684 310.182 82.8329 315.31 82.8329C323.102 82.8329 329.492 81.5274 330.182 79.8632H303.278Z" fill="white"/>
<path d="M30.224 3.38623L25.2009 18.1816H23.2212L18.7547 5.5679L14.1895 18.1875L12.2592 18.211L7.3418 3.39211H9.24395L13.3019 16.3704L17.8389 3.39211H19.8185L24.2287 16.3704L28.3148 3.39211H30.224V3.38623Z" fill="white"/>
<path d="M34.7109 3.38623V18.1816H32.9355V3.38623H34.7109Z" fill="white"/>
<path d="M52.1065 18.1875H50.3312L40.5175 5.73844V18.1875H38.7422V3.38623H40.5175L50.3312 15.8177V3.38623H52.1065V18.1875Z" fill="white"/>
<path d="M66.5134 3.38623V4.61526H61.5959V18.1875H59.8206V4.61526H54.875V3.38623H66.5134Z" fill="white"/>
<path d="M71.1074 4.59769V10.1254H77.8283V11.3544H71.1074V16.9645H78.5892V18.1935H69.332V3.36865H78.5892V4.59769H71.1074Z" fill="white"/>
<path d="M91.5172 18.1875L87.1282 12.0071H83.8593V18.1875H82.084V3.38623H87.41C89.3897 3.38623 90.8902 3.78023 91.9118 4.5741C92.9333 5.36209 93.4476 6.40294 93.4476 7.6849C93.4476 8.75516 93.0812 9.67252 92.3415 10.4252C91.6088 11.1779 90.5169 11.6719 89.0797 11.8954L93.6448 18.1816H91.5172V18.1875ZM83.8593 10.7957H87.4382C88.8261 10.7957 89.8687 10.5134 90.5732 9.9489C91.2777 9.38437 91.6229 8.63166 91.6229 7.6849C91.6229 6.70873 91.2848 5.9619 90.6084 5.43266C89.9321 4.90341 88.8683 4.63878 87.41 4.63878H83.8593V10.7957Z" fill="white"/>
<path d="M104.553 7.96124H102.496L104.701 3.38623H105.997L104.553 7.96124Z" fill="white"/>
<path d="M115.398 11.7844C117.096 10.2378 117.949 8.72654 117.949 7.24465C117.949 6.26848 117.66 5.49226 117.075 4.9042C116.49 4.31615 115.539 4.02801 114.222 4.02801C112.94 4.02801 111.946 4.3632 111.242 5.03358C110.537 5.70395 110.15 6.59779 110.065 7.70921H108.339C108.438 6.14499 109.023 4.92773 110.079 4.05741C111.136 3.18709 112.517 2.75781 114.229 2.75781C115.87 2.75781 117.195 3.14005 118.209 3.9104C119.224 4.68074 119.731 5.76864 119.731 7.17997C119.731 8.88532 118.879 10.5436 117.181 12.1431C115.483 13.7426 113.391 15.3068 110.904 16.8299H120.288V18.0766H108.191V17.0181C111.291 15.0775 113.701 13.331 115.398 11.7844Z" fill="white"/>
<path d="M131.195 11.7844C132.893 10.2378 133.746 8.72654 133.746 7.24465C133.746 6.26848 133.457 5.49226 132.872 4.9042C132.287 4.31615 131.336 4.02801 130.019 4.02801C128.737 4.02801 127.743 4.3632 127.039 5.03358C126.334 5.70395 125.947 6.59779 125.862 7.70921H124.136C124.235 6.14499 124.82 4.92773 125.876 4.05741C126.933 3.18709 128.314 2.75781 130.026 2.75781C131.667 2.75781 132.992 3.14005 134.006 3.9104C135.021 4.68074 135.528 5.76864 135.528 7.17997C135.528 8.88532 134.676 10.5436 132.978 12.1431C131.28 13.7426 129.187 15.3068 126.701 16.8299H136.085V18.0766H123.988V17.0181C127.088 15.0775 129.497 13.331 131.195 11.7844Z" fill="white"/>
</svg>
