<svg width="267" height="102" viewBox="0 0 267 102" fill="none" xmlns="http://www.w3.org/2000/svg">
<path d="M148.329 102V76.7707H97.6914V57.3872L150.375 0.159668H166.487V54.9258H177.74V76.7707H166.487V102H148.329ZM126.846 54.9258H148.329V34.0039L126.846 54.9258Z" fill="#24282B"/>
<path d="M135.03 45.3877V76.1552H109.455V54.9256H119.429V66.6173H125.311V45.3877H135.03Z" fill="#70CA18"/>
<path d="M166.745 26.312V57.0795H157.026V35.8499H150.888V47.5416H141.17V26.312H166.745Z" fill="#70CA18"/>
<path d="M166.742 64.4639H157.023V76.1555H166.742V64.4639Z" fill="#70CA18"/>
<path d="M119.173 26.312H109.455V38.0037H119.173V26.312Z" fill="#70CA18"/>
<path d="M132.471 32.1578L135.029 29.0811V26.312H132.983L130.17 29.3888L127.612 26.312H125.311V29.0811L128.124 32.1578L125.311 35.2346V38.0037H127.612L130.17 34.9269L132.983 38.0037H135.029V35.2346L132.471 32.1578Z" fill="#70CA18"/>
<path d="M148.331 60.7717L150.888 57.3873V54.9259H148.587L146.029 58.0026L143.472 54.9259H141.17V57.3873L143.727 60.7717L141.17 63.8484V66.6175H143.472L146.029 63.5408L148.587 66.6175H150.888V63.8484L148.331 60.7717Z" fill="#70CA18"/>
<path d="M0 66.6175V35.5424H4.60343V48.157H21.4827V35.5424H26.0861V66.6175H21.4827V54.0028H4.60343V66.6175H0Z" fill="white"/>
<path d="M35.2946 66.6174C34.0159 66.6174 32.7371 66.0021 31.7142 64.7714C30.6912 63.5407 30.1797 62.31 30.1797 60.4639V50.926H46.5474V48.4646C46.5474 47.5416 46.5474 47.234 46.5474 47.234C46.5474 47.234 46.0359 47.234 45.5244 47.234H30.4354V41.6958H46.5474C47.8262 41.6958 49.1049 42.3111 50.1279 43.5418C51.1509 44.7725 51.6624 46.0032 51.6624 47.8493V66.9251H35.2946V66.6174ZM36.3176 61.0793H46.8032V56.4642H35.0389V59.5409C35.0389 60.464 35.0389 60.7716 35.0389 60.7716C35.2946 60.7716 35.5503 61.0793 36.3176 61.0793Z" fill="white"/>
<path d="M59.5915 66.6177C58.3128 66.6177 57.034 66.0023 56.0111 64.7716C54.9881 63.5409 54.4766 62.3102 54.4766 60.4642V47.2342C54.4766 45.6958 54.9881 44.1574 56.0111 42.9267C57.034 41.696 58.057 41.0807 59.5915 41.0807H75.7035V46.6188H60.6145C59.8472 46.6188 59.5915 46.6188 59.5915 46.6188C59.5915 46.6188 59.5915 47.2342 59.5915 47.8495V58.6181C59.5915 59.5412 59.5915 59.8488 59.5915 59.8488C59.5915 59.8488 60.103 59.8488 60.6145 59.8488H75.7035V65.387H59.5915V66.6177Z" fill="white"/>
<path d="M79.0273 66.6177V33.3888H83.6308V51.2339H87.2112L94.6279 41.696H99.7428V43.2344L91.5589 54.3107L99.7428 65.387V66.9253H94.8836L87.467 57.3874H83.8865V66.9253H79.0273V66.6177Z" fill="white"/>
<path d="M176.465 66.6175V35.5424H181.58L197.436 58.3103V35.5424H202.295V66.6175H197.18L181.324 43.8496V66.6175H176.465Z" fill="white"/>
<path d="M206.131 66.6175V35.5424H210.734V66.6175H206.131Z" fill="white"/>
<path d="M223.265 66.6175V41.3882H212.779V35.5424H238.61V41.3882H228.124V66.6175H223.265Z" fill="white"/>
<path d="M241.17 66.6175V35.5424H261.885C263.164 35.5424 264.443 36.1577 265.466 37.3884C266.489 38.6191 267 39.8498 267 41.6959V50.0031C267 51.5414 266.489 53.0798 265.466 54.3105C264.443 55.5412 263.42 56.1566 261.885 56.1566H245.773V66.6175H241.17ZM247.052 50.3108H260.862C261.63 50.3108 261.885 50.3108 261.885 50.3108C261.885 50.3108 262.141 49.6954 262.141 49.0801V43.2342C262.141 42.3112 262.141 42.0035 261.885 42.0035C261.885 42.0035 261.374 42.0035 260.862 42.0035H247.052C246.285 42.0035 246.029 42.0035 246.029 42.0035C246.029 42.0035 246.029 42.6189 246.029 43.2342V49.0801C246.029 50.0031 246.029 50.3108 246.029 50.3108C246.029 50.3108 246.541 50.3108 247.052 50.3108Z" fill="white"/>
</svg>
